<?xml version="1.0" encoding="utf-8"?>
<svg viewBox="0 0 500 500" xmlns="http://www.w3.org/2000/svg">
  <rect x="206.42" y="153.59" width="93.182" height="163.611" style="fill: rgb(216, 216, 216); stroke: rgb(0, 0, 0);" transform="matrix(1, 0, 0, 1, 7.105427357601002e-15, 0)"/>
  <rect x="261.33" y="161.048" width="34.278" height="51.949" style="stroke: rgb(0, 0, 0); fill: rgb(178, 178, 178);" transform="matrix(1, 0, 0, 1, 7.105427357601002e-15, 0)"/>
  <rect x="209.521" y="162.291" width="34.269" height="51.749" style="stroke: rgb(0, 0, 0); fill: rgb(178, 178, 178);" transform="matrix(1, 0, 0, 1, 7.105427357601002e-15, 0)"/>
  <rect x="210.157" y="234.346" width="86.507" height="78.484" style="stroke: rgb(0, 0, 0); fill: rgb(178, 178, 178);" transform="matrix(1, 0, 0, 1, 7.105427357601002e-15, 0)"/>
  <ellipse style="fill: rgb(216, 216, 216); stroke: rgb(0, 0, 0);" cx="253.026" cy="104.585" rx="40.606" ry="40.606" transform="matrix(1, 0, 0, 1, 7.105427357601002e-15, 0)"/>
  <path d="M 218.049 67.741 C 218.049 94.615 247.141 111.412 270.414 97.974 C 281.216 91.738 287.87 80.213 287.87 67.741" style="fill: rgb(255, 164, 221); stroke: rgb(0, 0, 0); transform-origin: 252.959px 85.2223px;" transform="matrix(-1, 0, 0, -1, 0, -0.000015258789)"/>
  <rect x="202.204" y="307.768" width="35.973" height="143.246" style="fill: rgb(216, 216, 216); stroke: rgb(0, 0, 0); transform-origin: 220.19px 379.391px;" transform="matrix(0.996195018291, 0.087156012654, -0.087156012654, 0.996195018291, 1.360991642634, 18.602609368772)"/>
  <rect x="202.204" y="307.768" width="35.973" height="143.246" style="fill: rgb(216, 216, 216); stroke: rgb(0, 0, 0); transform-origin: 220.19px 379.391px;" transform="matrix(0.996195018291, -0.087156012654, 0.087156012654, 0.996195018291, 65.372834425879, 20.396135450998)"/>
  <rect x="202.204" y="307.768" width="35.973" height="143.246" style="fill: rgb(216, 216, 216); stroke: rgb(0, 0, 0); transform-origin: 220.19px 379.391px;" transform="matrix(0.996195018291, 0.087156012654, -0.087156012654, 0.996195018291, -45.416666869337, -153.285957302958)"/>
  <rect x="202.204" y="307.768" width="35.973" height="143.246" style="fill: rgb(216, 216, 216); stroke: rgb(0, 0, 0); transform-origin: 220.19px 379.391px;" transform="matrix(0.996195018291, -0.087156012654, 0.087156012654, 0.996195018291, 110.998910170508, -153.058561204275)"/>
  <path d="M 265.806 302.665 C 267.226 302.977 268.837 302.984 270.238 302.665 C 271.633 302.348 273.261 301.651 274.194 300.767 C 275.035 299.969 275.506 298.864 275.776 297.76 C 276.058 296.606 276.113 295.143 275.776 293.962 C 275.435 292.768 274.57 291.412 273.719 290.639 C 272.956 289.947 271.649 290.329 271.029 289.373 C 270.123 287.979 269.52 283.218 270.079 281.778 C 270.445 280.838 271.702 281.173 272.295 280.354 C 273.078 279.269 274.045 276.935 273.877 275.29 C 273.705 273.61 272.591 271.417 271.187 270.385 C 269.73 269.313 267.09 268.837 265.174 269.119 C 263.238 269.404 260.993 270.771 259.636 272.126 C 258.361 273.397 257.641 275.002 257.104 276.873 C 256.487 279.023 256.38 281.62 256.471 284.468 C 256.578 287.826 256.943 293.016 258.053 295.861 C 258.915 298.07 260.304 299.62 261.693 300.767 C 262.926 301.785 264.376 302.35 265.806 302.665 Z" style="stroke: rgb(0, 0, 0); stroke-miterlimit: 1; fill: rgb(158, 172, 51); transform-origin: 266.226px 285.969px;" transform="matrix(-1, 0, 0, -1, 0, 0)"/>
  <path d="M 232.035 171.479 C 219.281 171.479 211.309 202.396 217.687 227.129 C 220.646 238.608 226.116 245.679 232.035 245.679 C 244.789 245.679 252.76 214.762 246.383 190.029 C 243.424 178.55 237.954 171.479 232.035 171.479 M 271.379 173.069 C 258.625 173.069 250.653 203.986 257.031 228.719 C 259.99 240.198 265.46 247.269 271.379 247.269 C 284.133 247.269 292.104 216.352 285.727 191.619 C 282.768 180.14 277.298 173.069 271.379 173.069 M 246.114 127.124 L 258.624 127.124 L 258.624 219.395 L 246.114 219.395 L 246.114 127.124 Z" stroke="rgb(0, 0, 0)" style="fill: rgb(203, 142, 255);" transform="matrix(1, 0, 0, 1, 7.105427357601002e-15, 0)"/>
  <ellipse style="stroke: rgb(0, 0, 0); fill: rgb(222, 0, 0);" cx="251.09" cy="214.315" rx="17.394" ry="24.685" transform="matrix(1, 0, 0, 1, 7.105427357601002e-15, 0)"/>
  <path d="M 256.811 239.149 C 258.583 239.277 263.53 240.942 265.17 243.074 C 266.66 245.011 267.239 248.413 266.801 250.925 C 266.337 253.583 264.601 255.989 262.112 258.545 C 258.694 262.055 251.181 266.737 246.617 269.166 C 242.972 271.106 239.899 272.281 236.83 272.861 C 234.094 273.379 231.79 273.682 229.083 272.861 C 225.923 271.902 221.416 269.022 219.093 266.626 C 217.205 264.681 216.239 262.649 215.423 260.161 C 214.54 257.472 213.841 253.545 214.199 250.925 C 214.509 248.658 216.08 246.195 216.85 245.152 C 217.296 244.548 217.436 244.589 218.073 244.229 C 219.166 243.611 220.45 242.562 223.374 241.919 C 228.827 240.722 248.918 239.397 253.388 239.57 C 253.491 239.545 253.594 239.522 253.695 239.5 C 254.434 239.342 255.25 239.272 256.069 239.293 C 256.286 239.192 256.529 239.128 256.811 239.149 Z" style="stroke: rgb(0, 0, 0); stroke-miterlimit: 1; fill: rgb(150, 63, 3);" transform="matrix(1, 0, 0, 1, 7.105427357601002e-15, 0)"/>
  <path d="M 240.216 270.127 C 241.636 269.815 243.247 269.808 244.648 270.127 C 246.043 270.444 247.671 271.141 248.604 272.025 C 249.445 272.823 249.916 273.928 250.186 275.032 C 250.468 276.186 250.523 277.649 250.186 278.83 C 249.845 280.024 248.98 281.38 248.129 282.153 C 247.366 282.845 246.059 282.463 245.439 283.419 C 244.533 284.813 243.93 289.574 244.489 291.014 C 244.855 291.954 246.112 291.619 246.705 292.438 C 247.488 293.523 248.455 295.857 248.287 297.502 C 248.115 299.182 247.001 301.375 245.597 302.407 C 244.14 303.479 241.5 303.955 239.584 303.673 C 237.648 303.388 235.403 302.021 234.046 300.666 C 232.771 299.395 232.051 297.79 231.514 295.919 C 230.897 293.769 230.79 291.172 230.881 288.324 C 230.988 284.966 231.353 279.776 232.463 276.931 C 233.325 274.722 234.714 273.172 236.103 272.025 C 237.336 271.007 238.786 270.442 240.216 270.127 Z" style="stroke: rgb(0, 0, 0); stroke-miterlimit: 1; fill: rgb(158, 172, 51);" transform="matrix(1, 0, 0, 1, 7.105427357601002e-15, 0)"/>
</svg>